<svg xmlns="http://www.w3.org/2000/svg" xmlns:xlink="http://www.w3.org/1999/xlink" width="205" height="205" viewBox="0 0 205 205"><defs><style>.a{fill:#fff;}.b,.e{fill:none;}.b{stroke:#39bc4d;stroke-width:9px;}.c{fill:#39bc4d;}.d{stroke:none;}.f{filter:url(#a);}</style><filter id="a" x="0" y="0" width="205" height="205" filterUnits="userSpaceOnUse"><feOffset dy="10" input="SourceAlpha"/><feGaussianBlur stdDeviation="5" result="b"/><feFlood flood-color="#efeff4"/><feComposite operator="in" in2="b"/><feComposite in="SourceGraphic"/></filter></defs><g transform="translate(-252.73 -94.73)"><g class="f" transform="matrix(1, 0, 0, 1, 252.73, 94.73)"><circle class="a" cx="87.5" cy="87.5" r="87.5" transform="translate(15 5)"/></g><g transform="translate(286.513 118.513)"><g class="b" transform="translate(0.217 0.217)"><circle class="d" cx="68.5" cy="68.5" r="68.5"/><circle class="e" cx="68.5" cy="68.5" r="64"/></g><path class="c" d="M1126.61,3421.711a5.431,5.431,0,0,1-1.588,3.845l-37.884,37.982a5.409,5.409,0,0,1-7.669,0L1058.4,3442.41a5.428,5.428,0,0,1,7.668-7.684L1083.3,3452l34.05-34.136a5.423,5.423,0,0,1,9.257,3.846Z" transform="translate(-1020.103 -3372.254)"/></g></g></svg>