<svg xmlns="http://www.w3.org/2000/svg" xmlns:xlink="http://www.w3.org/1999/xlink" width="295" height="173.001" viewBox="0 0 295 173.001"><defs><style>.a{fill:#fff9f2;}.b{fill:#fff;}.c,.d{fill:#e2e2e2;}.d,.l{opacity:0.33;}.e,.m{fill:#104063;}.f,.g,.i,.j,.r{fill:none;}.f,.g,.i,.j{stroke:#5ac8fa;stroke-miterlimit:10;opacity:0.15;}.f{stroke-width:5.561px;}.g{stroke-width:5.109px;}.h{fill:url(#a);}.i{stroke-width:1.778px;}.j{stroke-width:3.192px;}.k{fill:url(#b);}.l{fill:url(#c);}.m{opacity:0.3;}.n{fill:#f4ad39;}.o{fill:#dc8a4a;}.p{fill:#4a2626;}.q{stroke:none;}</style><linearGradient id="a" y1="0.5" x2="1" y2="0.5" gradientUnits="objectBoundingBox"><stop offset="0" stop-color="#fbb03b"/><stop offset="0.999" stop-color="#ff9500"/></linearGradient><linearGradient id="b" x1="10.314" y1="0.5" x2="11.314" y2="0.5" xlink:href="#a"/><linearGradient id="c" x1="1.012" y1="0.988" x2="-0.012" y2="0.012" gradientUnits="objectBoundingBox"><stop offset="0" stop-color="#0071bc" stop-opacity="0"/><stop offset="0.999" stop-color="#29abe2"/></linearGradient></defs><g transform="translate(-29 -342.184)"><path class="a" d="M147.5,0C228.962,0,295,54.738,295,122.261s-295,67.523-295,0S66.038,0,147.5,0Z" transform="translate(29 342.184)"/><g transform="translate(-6076.519 -6782.477)"><rect class="b" width="110.47" height="84.514" transform="translate(6166.63 7211.255)"/><rect class="c" width="94.751" height="84.514" transform="translate(6277.101 7211.255)"/><rect class="b" width="114.279" height="4.761" transform="translate(6162.821 7211.255)"/><rect class="c" width="98.806" height="4.761" transform="translate(6277.101 7211.255)"/><rect class="d" width="205.221" height="2.381" transform="translate(6166.63 7216.016)"/><rect class="e" width="55.985" height="48.157" transform="translate(6276.847 7247.612)"/><rect class="e" width="47.257" height="48.082" transform="translate(6229.844 7247.687)"/><g class="f" transform="translate(6277.259 7247.687)"><rect class="q" width="55.985" height="48.082"/><rect class="r" x="2.78" y="2.78" width="50.424" height="42.521"/></g><g class="g" transform="translate(6229.844 7247.687)"><rect class="q" width="47.257" height="48.082"/><rect class="r" x="2.554" y="2.554" width="42.148" height="42.973"/></g><g transform="translate(6198.472 7247.612)"><rect class="e" width="25.086" height="48.157" transform="translate(1.074 0)"/><rect class="h" width="27.233" height="1.984" transform="translate(0 46.248)"/><g class="i" transform="translate(0.991 0.075)"><rect class="q" width="25.169" height="10.938"/><rect class="r" x="0.889" y="0.889" width="23.39" height="9.159"/></g><g class="j" transform="translate(0.991 11.013)"><rect class="q" width="25.169" height="35.235"/><rect class="r" x="1.596" y="1.596" width="21.977" height="32.043"/></g><rect class="c" width="1.03" height="10.321" transform="translate(3.51 24.078)"/></g><g transform="translate(6173.384 7247.611)"><rect class="e" width="25.086" height="48.157" transform="translate(26.16 48.157) rotate(-180)"/><rect class="k" width="27.233" height="1.984" transform="translate(27.233 48.233) rotate(-180)"/><g class="i" transform="translate(26.242 11.013) rotate(-180)"><rect class="q" width="25.169" height="10.938"/><rect class="r" x="0.889" y="0.889" width="23.39" height="9.159"/></g><g class="j" transform="translate(26.242 46.249) rotate(-180)"><rect class="q" width="25.169" height="35.235"/><rect class="r" x="1.596" y="1.596" width="21.977" height="32.043"/></g><rect class="c" width="1.03" height="10.321" transform="translate(23.723 34.4) rotate(-180)"/></g><rect class="l" width="39.082" height="40.968" transform="translate(6177.052 7250.414)"/><rect class="l" width="39.082" height="40.968" transform="translate(6232.959 7251.238)"/><path class="m" d="M6533.686,7409.1h-7.644l-3.311,3.83,1.817,2.611,1.494-2.147v8.979h7.644v-8.979l1.494,2.147,1.817-2.611Z" transform="translate(-239.99 -141.149)"/><path class="m" d="M6574.019,7422.763h-7.644l-3.311,3.829,1.817,2.611,1.494-2.146v8.979h7.644v-8.979l1.494,2.146,1.817-2.611Z" transform="translate(-263.703 -149.182)"/><path class="m" d="M6416.61,7419.1h-7.644l-3.311,3.83,1.817,2.611,1.494-2.146v8.979h7.644v-8.979l1.494,2.146,1.817-2.611Z" transform="translate(-171.161 -147.027)"/><path class="m" d="M6447.133,7392.994h-7.644l-3.311,3.83,1.817,2.611,1.493-2.147v8.979h7.644v-8.979l1.494,2.147,1.817-2.611Z" transform="translate(-189.106 -131.681)"/><path class="m" d="M6476.034,7419.1h-7.644l-3.311,3.83,1.817,2.611,1.494-2.146v8.979h7.644v-8.979l1.494,2.146,1.817-2.611Z" transform="translate(-206.097 -147.027)"/><path class="m" d="M6610.255,7392.994h-7.644l-3.311,3.83,1.817,2.611,1.494-2.147v8.979h7.644v-8.979l1.494,2.147,1.817-2.611Z" transform="translate(-285.006 -131.681)"/><rect class="h" width="98.806" height="18.807" transform="translate(6277.555 7197.438)"/><rect class="h" width="115.434" height="18.807" transform="translate(6162.121 7197.438)"/><g transform="translate(6114.519 7169.012)"><path class="n" d="M6125.861,7239.125v-.038l.053.036h.044v.031a13.963,13.963,0,0,1,1.368,1c1.827,1.523,2.976,4.125,5.114,5.227a5.507,5.507,0,0,0,7.817-3.454c.979-3.842-2.176-6.326-5.135-7.894-2.907-1.54-6.436-2.583-9.263-4.47-18.3-17.2,12.029-16.087,16.753-12.371,3.674-3.4-5.968-6.555-7.863-7.358a9.021,9.021,0,0,1-4.089-3,6.023,6.023,0,0,1-1.27-4.408c.37-2.077,1.909-2.691,3.249-3.8a37.84,37.84,0,0,1-5.638-4.652,15.932,15.932,0,0,1-1.143-22.329h0c.2-.159.393-.316.591-.468,5.636-4.333,9.552-1.577,13.8,3.147,1.911,2.127,4.222,4.055,7.293,3.171,2.328-.67,4.268-2.51,6.1-4,2.142-1.738,4.5-3.365,7.288-3.79a6.241,6.241,0,0,1,7.468,6.75c-.233,4.666-9.5,15.778-2.093,18.092,4.188,1.31,8.842-3.092,13.243-2.448,4.213.617,5.671,4.772,4.551,8.512-1.789,5.977-8.044,9.726-12.474,13.593-3,2.617-6,5.7-7.306,9.555-.592,1.758-1.671,4.62.936,4.869,2.057.2,4.635-1.428,6.242-2.574,4.586-3.269,9.05-10.884,15.344-11.048,4.622-.12,7.67,5.513,8.53,9.387a14.84,14.84,0,0,1-4.893,14.438c-4.829,4.126-13.733,2.71-15.626,9.649-1.283,4.706-1.973,8.478-7.5,9.327-1.98.3-4.291-.156-6.157.66q-3.8.171-.922,4.872l.821-.11a6.96,6.96,0,0,0,2.244-.548,89.438,89.438,0,0,0,11.36-5c2.045-1,4.926-3.355,7.362-3.006,2.2.317,4.26,2.962,5.491,4.563,3.032,3.941,4.5,9.152,2.289,13.841-2.183,4.631-6.81,6.4-11.678,5.195-4-.988-7.527-3.122-11.638-3.718-.868.028-1.737.079-2.612.183-5.1.6-9.325,2.87-14.032,4.7-5.366,2.082-13.817,2.19-15.6-4.763-1.336-5.228,1.409-10.044-5.209-12.6a14.828,14.828,0,0,0-3.213-.813c-6.318,0-11.342-4.383-11.342-10.7A11.439,11.439,0,0,1,6125.861,7239.125Z" transform="translate(-6114.519 -7169.012)"/><path class="o" d="M6185.045,7264.969c1.867-.817,4.177-.356,6.158-.66,5.529-.85,6.219-4.622,7.5-9.327,1.893-6.939,10.8-5.524,15.626-9.649a14.841,14.841,0,0,0,4.893-14.438c-.86-3.874-3.908-9.507-8.53-9.387-6.294.164-10.758,7.779-15.344,11.048-1.607,1.146-4.186,2.77-6.242,2.573-2.607-.249-1.529-3.111-.937-4.869,1.3-3.857,4.309-6.937,7.306-9.554,4.43-3.868,10.686-7.616,12.474-13.593,1.12-3.74-.338-7.895-4.551-8.511-4.4-.645-9.056,3.757-13.243,2.448-7.4-2.314,1.86-13.427,2.094-18.092a7.2,7.2,0,0,0-.429-2.893,18.807,18.807,0,0,0-5.469,1.264c-6.794,2.264-6.039,10.567-3.02,16.605,1.51,3.02,5.284,6.793,3.02,9.813-8.3,9.813-7.549,18.116-10.567,30.192,0,0-2.265,1.51-3.774,2.265-3.019,4.529,0,11.322-3.019,15.852-3.019,3.773-9.813,0-12.832,4.529-.755,1.509-1.51,3.019-.755,4.529,3.773,4.529,11.322.755,12.077,6.793,1.509,7.548.754,12.077,9.057,9.058,4.529-1.51,8.3-9.058,13.586-6.794,4.529,2.265,9.058,4.529,14.342,3.774a14.029,14.029,0,0,0,9.245-8.214,17.247,17.247,0,0,0-2.31-3.99c-1.231-1.6-3.288-4.246-5.492-4.562-2.436-.35-5.317,2-7.362,3.006a89.566,89.566,0,0,1-11.36,5,6.954,6.954,0,0,1-2.245.549l-.821.109Q6181.247,7265.139,6185.045,7264.969Z" transform="translate(-6138.373 -7175.509)"/><g transform="translate(9.949 13.411)"><path class="p" d="M6206.3,7318.137l-1.47-113.822a.481.481,0,0,0-.961,0l-1.469,113.822Z" transform="translate(-6176.135 -7202.898)"/><path class="p" d="M6149.33,7201.63a.331.331,0,0,1,.463.045l23.99,28.807v2.371l-24.5-30.759A.332.332,0,0,1,6149.33,7201.63Z" transform="translate(-6144.861 -7201.556)"/><path class="p" d="M6204.519,7411.33l14.75-14.1a.331.331,0,0,1,.463.474l-14.475,14.45A2.984,2.984,0,0,0,6204.519,7411.33Z" transform="translate(-6177.379 -7316.542)"/><path class="p" d="M6206.352,7277.488l14.749-14.1a.331.331,0,0,1,.463.474l-14.475,14.45A2.974,2.974,0,0,0,6206.352,7277.488Z" transform="translate(-6178.457 -7237.855)"/><path class="p" d="M6179.877,7302.777l-2.116-16.416a.269.269,0,0,1,.532-.075l2.479,16.406A2.4,2.4,0,0,0,6179.877,7302.777Z" transform="translate(-6161.647 -7251.236)"/><path class="p" d="M6239.135,7289.97a.33.33,0,0,0-.462.044l-31.539,29.562v2.371l32.052-31.514A.33.33,0,0,0,6239.135,7289.97Z" transform="translate(-6178.917 -7253.491)"/><path class="p" d="M6222.315,7348.429a1.379,1.379,0,0,0,.271-.329l17.3-1.378a.331.331,0,0,1,.06.659l-18.643,1.9C6221.648,7348.991,6221.993,7348.711,6222.315,7348.429Z" transform="translate(-6187.244 -7286.899)"/><path class="p" d="M6138.7,7292.54a.269.269,0,0,0,.1.365l27.8,21.374,1.9-.311-29.43-21.529A.27.27,0,0,0,6138.7,7292.54Z" transform="translate(-6138.661 -7254.967)"/></g><g transform="translate(26.583 45.452)"><path class="o" d="M6187.3,7295.058c-.608-.572-1.962-1.191-2.418-.745a.3.3,0,0,0-.017.279,9.728,9.728,0,0,0,.9,1.686,14.058,14.058,0,0,0,1.085,1.736,2.807,2.807,0,0,0,1.67,1.163c.142.019.658.027.726-.147a5.607,5.607,0,0,0-.314-1.313A7.338,7.338,0,0,0,6187.3,7295.058Z" transform="translate(-6182.442 -7288.039)"/><path class="o" d="M6181.01,7333.858c-.636.041-1.817.638-1.979,1.346a.25.25,0,0,0,.089.229,4.369,4.369,0,0,0,1.242.588,6.256,6.256,0,0,0,1.393.479,1.867,1.867,0,0,0,1.6-.429c.107-.1.475-.5.46-.69a3.016,3.016,0,0,0-.695-.765A3.331,3.331,0,0,0,6181.01,7333.858Z" transform="translate(-6179.026 -7311.375)"/><path class="o" d="M6193.215,7282.526c.314.555,1.368,1.356,2.075,1.193a.249.249,0,0,0,.167-.18,4.37,4.37,0,0,0-.013-1.374,6.3,6.3,0,0,0-.177-1.462,1.869,1.869,0,0,0-1.083-1.253c-.136-.053-.66-.208-.823-.112a3.026,3.026,0,0,0-.385.959A3.329,3.329,0,0,0,6193.215,7282.526Z" transform="translate(-6187.177 -7279.307)"/></g><g transform="translate(11.342 8.161)"><path class="o" d="M6144.226,7203.173a7.715,7.715,0,0,0-2.183-1.781v2.568c.112.078.225.155.341.225a2.8,2.8,0,0,0,1.973.5c.14-.032.625-.207.626-.395A5.536,5.536,0,0,0,6144.226,7203.173Z" transform="translate(-6142.043 -7196.21)"/><path class="o" d="M6198.28,7216.481a2.487,2.487,0,0,0-2.346-.477.248.248,0,0,0-.1.224,4.362,4.362,0,0,0,.446,1.3,6.306,6.306,0,0,0,.63,1.332,1.867,1.867,0,0,0,1.425.846c.145.008.691-.01.816-.154a3.016,3.016,0,0,0,.062-1.031A3.327,3.327,0,0,0,6198.28,7216.481Z" transform="translate(-6173.666 -7204.714)"/><path class="o" d="M6155.817,7192.034c.314.555,1.368,1.357,2.075,1.194a.249.249,0,0,0,.168-.18,4.387,4.387,0,0,0-.013-1.375,6.324,6.324,0,0,0-.177-1.462,1.869,1.869,0,0,0-1.084-1.253c-.136-.053-.659-.208-.823-.112a3.009,3.009,0,0,0-.384.958A3.33,3.33,0,0,0,6155.817,7192.034Z" transform="translate(-6149.95 -7188.815)"/></g><g transform="translate(43.898 61.751)"><path class="n" d="M6265.864,7321.376c.5-.671.953-2.088.456-2.49a.3.3,0,0,0-.28.017,9.726,9.726,0,0,0-1.567,1.091,14.037,14.037,0,0,0-1.6,1.282,2.8,2.8,0,0,0-.959,1.795c0,.144.051.657.233.7a5.546,5.546,0,0,0,1.267-.467A7.308,7.308,0,0,0,6265.864,7321.376Z" transform="translate(-6245.073 -7318.859)"/><path class="n" d="M6224.278,7365.864a2.488,2.488,0,0,0,1.025-2.163.248.248,0,0,0-.192-.153,4.363,4.363,0,0,0-1.369.121,6.281,6.281,0,0,0-1.443.292,1.869,1.869,0,0,0-1.164,1.18c-.042.139-.155.673-.046.829a3,3,0,0,0,.987.308A3.328,3.328,0,0,0,6224.278,7365.864Z" transform="translate(-6221.042 -7345.116)"/><path class="n" d="M6271.6,7331.277c-.614.172-1.645,1-1.656,1.728a.246.246,0,0,0,.134.206,4.362,4.362,0,0,0,1.337.318,6.313,6.313,0,0,0,1.462.18,1.867,1.867,0,0,0,1.477-.751c.084-.119.36-.59.307-.771a2.99,2.99,0,0,0-.839-.6A3.333,3.333,0,0,0,6271.6,7331.277Z" transform="translate(-6249.793 -7326.112)"/></g><g transform="translate(53.364 30.377)"><path class="n" d="M6247.961,7245.244c.5-.671.953-2.089.455-2.489-.061-.05-.183-.027-.279.017a9.709,9.709,0,0,0-1.568,1.09,14.13,14.13,0,0,0-1.6,1.282,2.807,2.807,0,0,0-.959,1.8c0,.143.051.656.233.7a5.58,5.58,0,0,0,1.267-.467A7.322,7.322,0,0,0,6247.961,7245.244Z" transform="translate(-6244.014 -7242.727)"/><path class="n" d="M6250.058,7396.925a2.487,2.487,0,0,0,1.025-2.163.246.246,0,0,0-.192-.152,4.361,4.361,0,0,0-1.369.121,6.316,6.316,0,0,0-1.444.292,1.868,1.868,0,0,0-1.163,1.18c-.043.14-.155.674-.047.829a3.008,3.008,0,0,0,.987.308A3.326,3.326,0,0,0,6250.058,7396.925Z" transform="translate(-6245.665 -7332.004)"/><path class="n" d="M6253.7,7255.145c-.614.172-1.646,1-1.657,1.728a.249.249,0,0,0,.135.206,4.369,4.369,0,0,0,1.337.318,6.332,6.332,0,0,0,1.462.18,1.87,1.87,0,0,0,1.477-.751c.085-.119.361-.59.307-.771a3.013,3.013,0,0,0-.838-.6A3.328,3.328,0,0,0,6253.7,7255.145Z" transform="translate(-6248.733 -7249.979)"/></g><g transform="translate(26.166 32.781)"><path class="o" d="M6181.734,7422.342c-.418.724-.708,2.184-.168,2.525.067.042.186.006.276-.048a9.677,9.677,0,0,0,1.433-1.262,13.97,13.97,0,0,0,1.44-1.456,2.8,2.8,0,0,0,.748-1.893c-.014-.143-.125-.646-.311-.672a5.552,5.552,0,0,0-1.206.608A7.314,7.314,0,0,0,6181.734,7422.342Z" transform="translate(-6179.929 -7349.078)"/><path class="o" d="M6217.188,7249.224a2.488,2.488,0,0,0-.772,2.266.248.248,0,0,0,.209.129,4.352,4.352,0,0,0,1.346-.277,6.265,6.265,0,0,0,1.4-.455,1.867,1.867,0,0,0,1.021-1.3c.026-.144.077-.687-.048-.829a3,3,0,0,0-1.015-.193A3.328,3.328,0,0,0,6217.188,7249.224Z" transform="translate(-6200.544 -7248.561)"/><path class="o" d="M6181.173,7411.646c.59-.241,1.52-1.184,1.449-1.906a.248.248,0,0,0-.157-.188,4.35,4.35,0,0,0-1.365-.163,6.265,6.265,0,0,0-1.472-.012,1.87,1.87,0,0,0-1.382.914c-.07.128-.291.628-.216.8a3.012,3.012,0,0,0,.9.5A3.332,3.332,0,0,0,6181.173,7411.646Z" transform="translate(-6178.014 -7343.081)"/></g></g></g></g></svg>