<svg xmlns="http://www.w3.org/2000/svg" xmlns:xlink="http://www.w3.org/1999/xlink" width="205" height="205" viewBox="0 0 205 205"><defs><style>.a{fill:#fff;}.b,.e{fill:none;}.b{stroke:#e74b2d;stroke-width:9px;}.c{fill:#e74b2d;}.d{stroke:none;}.f{filter:url(#a);}</style><filter id="a" x="0" y="0" width="205" height="205" filterUnits="userSpaceOnUse"><feOffset dy="10" input="SourceAlpha"/><feGaussianBlur stdDeviation="5" result="b"/><feFlood flood-color="#efeff4"/><feComposite operator="in" in2="b"/><feComposite in="SourceGraphic"/></filter></defs><g transform="translate(-252.73 -94.73)"><g class="f" transform="matrix(1, 0, 0, 1, 252.73, 94.73)"><circle class="a" cx="87.5" cy="87.5" r="87.5" transform="translate(15 5)"/></g><g transform="translate(286.513 118.513)"><g class="b" transform="translate(0.217 0.217)"><circle class="d" cx="68.5" cy="68.5" r="68.5"/><circle class="e" cx="68.5" cy="68.5" r="64"/></g><path class="c" d="M2243.143,1167.294a5.325,5.325,0,0,0,7.58,0l17.287-17.452,17.285,17.452a5.327,5.327,0,0,0,7.582,0,5.448,5.448,0,0,0,0-7.654l-17.035-17.2,17.035-17.2a5.449,5.449,0,0,0,0-7.654,5.327,5.327,0,0,0-7.582,0l-17.285,17.452-17.287-17.452a5.325,5.325,0,0,0-7.58,0,5.45,5.45,0,0,0,0,7.654l17.037,17.2-17.037,17.2A5.449,5.449,0,0,0,2243.143,1167.294Z" transform="translate(-2199.439 -1073.872)"/></g></g></svg>