<svg xmlns="http://www.w3.org/2000/svg" xmlns:xlink="http://www.w3.org/1999/xlink" width="74.561" height="67.858" viewBox="0 0 74.561 67.858"><defs><style>.a{fill:url(#a);}</style><linearGradient id="a" x1="0.055" y1="1.018" x2="0.945" y2="0.04" gradientUnits="objectBoundingBox"><stop offset="0" stop-color="#d15630"/><stop offset="0.487" stop-color="#d46636"/><stop offset="0.96" stop-color="#df9033"/><stop offset="1" stop-color="#da802d"/></linearGradient></defs><path class="a" d="M99.4,87.037l-3.946-59.2c-.154-2.3-2.55-4.1-5.455-4.1H34.256c-2.905,0-5.3,1.8-5.455,4.1l-3.946,59.2c-.165,2.477,2.325,4.557,5.455,4.557H93.945C97.075,91.594,99.565,89.514,99.4,87.037ZM85.853,49.214l-.281.648A24.413,24.413,0,0,1,63.263,64.778c-.379,0-.74-.011-1.08-.033A24.379,24.379,0,0,1,38.794,49.862l-.28-.648V38.193a3.413,3.413,0,1,1,6.825,0v9.581A17.512,17.512,0,0,0,61.922,57.921l.261-.019.279.02A17.511,17.511,0,0,0,79.027,47.774V38.193a3.413,3.413,0,1,1,6.826,0Z" transform="translate(-24.847 -23.736)"/></svg>