<svg xmlns="http://www.w3.org/2000/svg" width="291" height="171.024" viewBox="0 0 291 171.024"><defs><style>.a{fill:#0f6455;}</style></defs><g transform="translate(-354 -422)"><g transform="translate(73.235 -147.533)"><path class="a" d="M758.757-541.683l-16.723-12.506a1.964,1.964,0,0,1-.476-.5,1.861,1.861,0,0,1-.793-1.511v-14.857a1.828,1.828,0,0,1,.465-1.215,5.818,5.818,0,0,1,2.159-2.916l3.295-2.466,5.224-3.91,5.522-4.135L760.1-587.7a9.6,9.6,0,0,1,5.708-1.769,9.6,9.6,0,0,1,5.709,1.769l16.707,12.505a6.343,6.343,0,0,1,1.644,1.774,1.838,1.838,0,0,1,.9,1.573v15.685a1.825,1.825,0,0,1-.687,1.423,1.953,1.953,0,0,1-.5.548l-16.724,12.506a11.831,11.831,0,0,1-7.047,2.216A11.827,11.827,0,0,1,758.757-541.683Zm2.667-2.943a6.671,6.671,0,0,0,2.479,1.116v-9.03a9.038,9.038,0,0,1-3.807-1.6l-15.328-11.474v8.533Zm6.291,1.114a6.667,6.667,0,0,0,2.471-1.114l16.723-12.505.045-.033V-565.7l-15.44,11.558a9.035,9.035,0,0,1-3.8,1.6Zm-4.954-41.242-2.665,2-5.522,4.133-5.224,3.911-3.295,2.466a1.775,1.775,0,0,0-.837,1.33,1.775,1.775,0,0,0,.837,1.33l16.707,12.5a5.167,5.167,0,0,0,3.045.9,5.166,5.166,0,0,0,3.044-.9l16.707-12.5a1.773,1.773,0,0,0,.837-1.33,1.773,1.773,0,0,0-.837-1.33l-16.707-12.505a5.173,5.173,0,0,0-3.044-.9A5.173,5.173,0,0,0,762.76-584.754Z" transform="translate(-219 1159)"/></g><path class="a" d="M549.153,1736.2h-29.7a10.149,10.149,0,0,0-10.149,10.149v29.7a10.149,10.149,0,0,0,10.149,10.148h29.7a10.149,10.149,0,0,0,10.149-10.148v-29.7A10.149,10.149,0,0,0,549.153,1736.2Zm-16.8,16.277L513.2,1771.629v-9.053l.008.008,19.14-19.139Zm0,29.822h-10.31l10.31-10.31Zm-12.9-42.2h10.722L513.2,1757.074v-10.722A6.254,6.254,0,0,1,519.451,1740.105Zm-6.159,36.952L532.351,1758v8.478l-15.333,15.333A6.262,6.262,0,0,1,513.292,1777.057Zm42.109-1a6.254,6.254,0,0,1-6.247,6.247h-12.9v-42.2h12.9a6.254,6.254,0,0,1,6.247,6.247Z" transform="translate(-155.302 -1193.179)"/><g transform="translate(-112.873 -1071.03)"><path class="a" d="M892.442,325.03a6.568,6.568,0,0,1-6.569-6.568v-4.233a6.569,6.569,0,0,1,6.569-6.569H903.7v-6.833h-9.82a8.005,8.005,0,0,1-8.005-8.005l2.278-9.787c1.768-5.017,3.584-8,8.005-8h28.977c4.422,0,6.264,3.021,8.005,8l2.734,9.787a8.006,8.006,0,0,1-8.005,8.005h-9.82v6.833H929.3a6.569,6.569,0,0,1,6.569,6.569v4.233a6.568,6.568,0,0,1-6.569,6.568Zm-2.012-10.8v4.233a2.015,2.015,0,0,0,2.012,2.012H929.3a2.015,2.015,0,0,0,2.013-2.012v-4.233a2.016,2.016,0,0,0-2.013-2.013H892.442A2.015,2.015,0,0,0,890.429,314.229Zm23.062-6.569v-6.833h-5.237v6.833ZM892.53,284.318l-2.076,8.92a3.454,3.454,0,0,0,3.424,3.033h33.989a3.455,3.455,0,0,0,3.414-2.953l-2.49-8.914c-1.7-4.819-2.565-4.819-3.658-4.819H896.156C895.079,279.586,894.225,279.586,892.53,284.318Zm11.98,34.3a2.278,2.278,0,1,1,0-4.556h19.905a2.278,2.278,0,0,1,0,4.556Zm-7.179,0a2.278,2.278,0,1,1,0-4.556h.173a2.278,2.278,0,0,1,0,4.556Z" transform="translate(-369 1241)"/></g><g transform="translate(-407.392 438.545)"><path class="a" d="M1523.391-1023.329a1.783,1.783,0,0,1,1.784-1.784,7.5,7.5,0,0,0,7.5-7.5v-4.135a1.785,1.785,0,0,1,1.784-1.784,1.784,1.784,0,0,1,1.784,1.784v4.135a11.076,11.076,0,0,1-11.064,11.064A1.784,1.784,0,0,1,1523.391-1023.329Zm-36.935-9.28v-4.135a1.784,1.784,0,0,1,1.784-1.784,1.785,1.785,0,0,1,1.784,1.784v4.135a7.5,7.5,0,0,0,7.5,7.5,1.783,1.783,0,0,1,1.783,1.784,1.784,1.784,0,0,1-1.783,1.784A11.076,11.076,0,0,1,1486.456-1032.609Zm10.262.923v-6.193a1.783,1.783,0,0,1,1.784-1.784,1.784,1.784,0,0,1,1.784,1.784v6.193a1.784,1.784,0,0,1-1.784,1.784A1.783,1.783,0,0,1,1496.718-1031.685Zm25.161-.124V-1038a1.783,1.783,0,0,1,1.784-1.783,1.783,1.783,0,0,1,1.784,1.783v6.194a1.784,1.784,0,0,1-1.784,1.784A1.784,1.784,0,0,1,1521.879-1031.81Zm-8.433-3.578v-2.626a1.785,1.785,0,0,1,1.784-1.784,1.784,1.784,0,0,1,1.784,1.784v2.626a1.783,1.783,0,0,1-1.784,1.783A1.784,1.784,0,0,1,1513.446-1035.388Zm-8.523,0v-2.626a1.784,1.784,0,0,1,1.784-1.784,1.784,1.784,0,0,1,1.784,1.784v2.626a1.783,1.783,0,0,1-1.784,1.783A1.783,1.783,0,0,1,1504.923-1035.388Zm-16.722-8.966a1.8,1.8,0,0,1-1.81-1.784,1.8,1.8,0,0,1,1.81-1.784h46.381a1.8,1.8,0,0,1,1.81,1.784,1.8,1.8,0,0,1-1.81,1.784Zm25.375-10.669v-2.625a1.783,1.783,0,0,1,1.784-1.784,1.783,1.783,0,0,1,1.784,1.784v2.625a1.784,1.784,0,0,1-1.784,1.784A1.784,1.784,0,0,1,1513.576-1055.022Zm-8.523,0v-2.625a1.783,1.783,0,0,1,1.784-1.784,1.783,1.783,0,0,1,1.784,1.784v2.625a1.784,1.784,0,0,1-1.784,1.784A1.784,1.784,0,0,1,1505.053-1055.022Zm16.956-.012v-6.192a1.783,1.783,0,0,1,1.783-1.784,1.783,1.783,0,0,1,1.784,1.784v6.192a1.783,1.783,0,0,1-1.784,1.784A1.783,1.783,0,0,1,1522.009-1055.034Zm-25.161,0v-6.192a1.783,1.783,0,0,1,1.784-1.784,1.783,1.783,0,0,1,1.784,1.784v6.192a1.783,1.783,0,0,1-1.784,1.784A1.783,1.783,0,0,1,1496.848-1055.034Zm35.824-1.313v-4.135a7.5,7.5,0,0,0-7.5-7.5,1.784,1.784,0,0,1-1.784-1.784,1.783,1.783,0,0,1,1.784-1.784,11.076,11.076,0,0,1,11.064,11.064v4.135a1.783,1.783,0,0,1-1.784,1.784A1.784,1.784,0,0,1,1532.671-1056.347Zm-46.215,0v-4.135a11.076,11.076,0,0,1,11.064-11.064,1.783,1.783,0,0,1,1.783,1.784,1.784,1.784,0,0,1-1.783,1.784,7.5,7.5,0,0,0-7.5,7.5v4.135a1.784,1.784,0,0,1-1.784,1.784A1.783,1.783,0,0,1,1486.456-1056.347Z" transform="translate(-519 1159)"/></g></g></svg>