<?xml version="1.0" encoding="utf-8"?>
<!-- Generator: Adobe Illustrator 16.0.0, SVG Export Plug-In . SVG Version: 6.00 Build 0)  -->
<!DOCTYPE svg PUBLIC "-//W3C//DTD SVG 1.1//EN" "http://www.w3.org/Graphics/SVG/1.1/DTD/svg11.dtd">
<svg version="1.1" id="Capa_1" xmlns="http://www.w3.org/2000/svg" xmlns:xlink="http://www.w3.org/1999/xlink" x="0px" y="0px"
	 width="132px" height="247.288px" viewBox="0 0 132 247.288" enable-background="new 0 0 132 247.288" xml:space="preserve">
<g>
	<path fill-rule="evenodd" clip-rule="evenodd" fill="#010101" d="M108.031,64.484c1.706,0.495,3.213,1.046,4.665,1.741
		c4.729,2.27,7.912,5.918,9.797,10.746c1.223,3.125,1.922,6.362,2.238,9.693c0.188,1.96,0.235,3.926,0.225,5.893
		c-0.02,3.958,0.087,7.92-0.07,11.876c-0.156,3.951-0.797,7.818-2.227,11.525c-2.811,7.287-7.984,11.996-15.592,14.059
		c-3.596,0.975-7.266,1.322-10.978,1.325c-9.437,0.005-18.874,0.002-28.312,0.002c-0.105,0-0.213-0.014-0.317,0.002
		c-0.444,0.067-0.562-0.154-0.516-0.546c0.019-0.155,0.003-0.314,0.003-0.472c0-41.143,0-82.286,0-123.429
		c0-1.024,0-1.024,1.046-1.024c9.462,0.001,18.927-0.008,28.39,0.007c3.58,0.006,7.107,0.432,10.572,1.375
		c6.869,1.869,11.438,6.155,13.795,12.8c0.926,2.61,1.492,5.299,1.744,8.046c0.479,5.235,0.412,10.479,0.117,15.716
		c-0.195,3.439-0.895,6.796-2.174,10.023c-1.656,4.18-4.568,7.17-8.604,9.136C110.648,63.558,109.409,63.998,108.031,64.484z
		 M81.043,95.235c0,7.55,0,15.101,0,22.651c0,0.737,0.005,0.742,0.715,0.742c4.811,0.001,9.619,0.011,14.43-0.005
		c1.561-0.005,3.107-0.162,4.633-0.529c4.509-1.081,7.461-3.839,8.98-8.15c0.955-2.705,1.233-5.515,1.242-8.358
		c0.015-3.722,0.015-7.445,0.002-11.167c-0.011-2.837-0.246-5.65-0.934-8.417c-1.16-4.668-3.995-7.738-8.672-9.122
		c-2.608-0.771-5.276-1.046-7.979-1.058c-3.859-0.016-7.719-0.006-11.576-0.002c-0.902,0-0.842-0.13-0.842,0.844
		C81.043,80.188,81.043,87.711,81.043,95.235z M81.043,38.776c0,6.53-0.002,13.06,0,19.59c0,0.784-0.086,0.72,0.714,0.72
		c2.617,0.001,5.234,0.006,7.853-0.001c2.033-0.005,4.068,0.051,6.098-0.181c2.136-0.245,4.211-0.701,6.188-1.563
		c2.817-1.226,4.737-3.25,5.733-6.151c0.818-2.384,1.169-4.842,1.204-7.34c0.049-3.46,0.06-6.923-0.007-10.382
		c-0.051-2.629-0.434-5.22-1.377-7.706c-1.099-2.892-2.975-5.041-5.943-6.148c-1.875-0.7-3.828-1.003-5.822-1.01
		c-4.68-0.017-9.357-0.009-14.037-0.013c-0.602,0-0.615-0.049-0.604,0.597c0,0.13,0,0.262,0,0.393
		C81.043,25.98,81.043,32.378,81.043,38.776z"/>
	<path fill-rule="evenodd" clip-rule="evenodd" fill="#010101" d="M20.754,72.699c-3.023-0.862-5.689-2.027-8.057-3.808
		c-2.117-1.593-3.805-3.546-5.059-5.871c-1.769-3.272-2.785-6.777-3.313-10.436c-0.372-2.575-0.486-5.165-0.473-7.764
		c0.017-3.252-0.007-6.503,0.007-9.754c0.02-4.136,0.465-8.212,1.718-12.178c1.155-3.654,2.948-6.945,5.63-9.726
		c2.971-3.082,6.649-4.937,10.753-6.034c2.999-0.802,6.062-1.222,9.162-1.233c10.046-0.032,20.091-0.018,30.136-0.02
		c0.612,0,0.612,0.008,0.624,0.582c0.002,0.157,0,0.314,0,0.473c0,41.144,0,82.286-0.003,123.429c0,1.106,0.177,0.98-1.025,0.981
		c-9.093,0.003-18.186,0.002-27.279,0.001c-3.871,0-7.705-0.307-11.456-1.329c-3.063-0.835-5.907-2.114-8.331-4.196
		c-2.793-2.398-4.586-5.45-5.79-8.87c-1.009-2.862-1.548-5.822-1.774-8.84c-0.332-4.399-0.238-8.807-0.113-13.207
		c0.103-3.68,0.73-7.286,1.971-10.785c1.779-5.01,5.205-8.41,10.098-10.432C18.971,73.358,19.784,73.069,20.754,72.699z
		 M47.782,42.035c0-7.499,0-14.997,0-22.495c0-0.21-0.008-0.42,0-0.63c0.011-0.238-0.108-0.327-0.334-0.318
		c-0.132,0.005-0.265,0-0.396,0c-4.811,0-9.619,0.005-14.431-0.002c-1.298-0.001-2.587,0.104-3.86,0.348
		c-4.61,0.885-7.854,3.424-9.557,7.81c-0.931,2.399-1.361,4.902-1.387,7.458c-0.043,4.692-0.022,9.385-0.008,14.078
		c0.006,1.942,0.25,3.869,0.633,5.775c0.206,1.029,0.502,2.031,0.864,3.018c1.359,3.705,4.071,5.959,7.775,7.15
		c2.589,0.831,5.259,1.13,7.966,1.138c4.018,0.011,8.034,0.002,12.052,0.002c0.763,0,0.682,0.023,0.683-0.68
		c0-0.157,0-0.315,0-0.473C47.782,56.823,47.782,49.429,47.782,42.035z M47.782,98.403c0-6.527,0-13.053,0-19.581
		c0-0.772,0.066-0.728-0.719-0.728c-2.219,0-4.439-0.007-6.658,0.002c-2.272,0.009-4.545-0.073-6.812,0.149
		c-2.004,0.199-3.965,0.572-5.859,1.271c-3.58,1.315-5.877,3.783-6.865,7.447c-0.453,1.677-0.752,3.379-0.828,5.111
		c-0.175,3.956-0.133,7.915-0.041,11.872c0.05,2.181,0.369,4.329,0.992,6.427c1.242,4.175,3.9,6.868,8.257,7.795
		c1.557,0.331,3.134,0.455,4.723,0.458c4.307,0.006,8.613,0.003,12.921,0.001c1.027-0.001,0.889,0.08,0.889-0.878
		C47.783,111.301,47.782,104.852,47.782,98.403z"/>
	<path fill-rule="evenodd" clip-rule="evenodd" fill="#010101" d="M63.184,154.083c19.504,0,39.01-0.002,58.516,0.001
		c1.119,0.001,0.949-0.149,0.951,0.96c0.01,2.806,0.003,5.61,0.005,8.417c0,0.715,0.032,0.686-0.693,0.679c-0.104,0-0.212,0-0.316,0
		c-38.983,0-77.969,0-116.953,0c-1.027,0-1.027,0-1.027-1.048c0-2.807,0-5.612-0.001-8.417c0-0.59-0.06-0.605,0.607-0.593
		c0.158,0.002,0.316,0.001,0.475,0.001C24.227,154.083,43.705,154.083,63.184,154.083z"/>
	<path fill-rule="evenodd" clip-rule="evenodd" fill="#8AC641" d="M27.643,215.083c0.469,0.172,0.816,0.289,1.158,0.425
		c2.645,1.05,4.139,3.07,4.849,5.728c0.304,1.142,0.509,2.304,0.509,3.491c-0.002,2.149,0.028,4.301-0.027,6.448
		c-0.04,1.556-0.387,3.068-1.01,4.502c-1.283,2.962-3.604,4.632-6.736,5.27c-1.037,0.212-2.086,0.325-3.146,0.324
		c-3.674-0.004-7.348,0-11.021,0c-0.079,0-0.158-0.008-0.237,0c-0.355,0.035-0.563-0.078-0.519-0.477
		c0.017-0.128,0.002-0.261,0.002-0.392c0-15.784,0-31.566,0-47.35c0-0.105-0.002-0.21,0-0.315c0.018-0.572,0.019-0.591,0.562-0.591
		c3.991,0.003,7.98-0.002,11.971,0.035c1.109,0.01,2.205,0.227,3.275,0.533c2.637,0.751,4.369,2.442,5.279,4.995
		c0.518,1.449,0.75,2.953,0.774,4.475c0.028,1.807,0.098,3.616-0.11,5.422c-0.146,1.285-0.44,2.527-0.969,3.71
		c-0.709,1.595-1.947,2.646-3.525,3.338C28.408,214.792,28.086,214.909,27.643,215.083z M17,227.095c0,1.807,0,3.614,0,5.422
		c0,1.074,0.007,2.148-0.004,3.222c-0.003,0.336,0.06,0.542,0.47,0.536c2.138-0.029,4.28,0.08,6.415-0.055
		c2.215-0.139,3.783-1.43,4.443-3.545c0.277-0.882,0.404-1.79,0.414-2.708c0.016-1.729,0.016-3.457,0.002-5.186
		c-0.01-1.076-0.158-2.138-0.468-3.175c-0.489-1.639-1.568-2.688-3.204-3.192c-0.43-0.131-0.86-0.245-1.308-0.305
		c-2.104-0.275-4.22-0.08-6.328-0.139c-0.29-0.008-0.448,0.092-0.433,0.402c0.01,0.185,0,0.368,0,0.55
		C17,221.647,17,224.371,17,227.095z M17,205.026c0,2.439-0.002,4.877,0.003,7.315c0.001,0.608,0.013,0.616,0.604,0.624
		c0.74,0.008,1.48,0.005,2.221,0.001c1.267-0.01,2.537,0.061,3.794-0.191c2.023-0.408,3.519-1.396,3.978-3.532
		c0.098-0.461,0.185-0.923,0.223-1.396c0.113-1.414,0.101-2.831,0.068-4.245c-0.023-1.098-0.067-2.2-0.414-3.265
		c-0.642-1.973-1.895-2.969-3.984-3.152c-1.928-0.169-3.857-0.05-5.785-0.08c-0.697-0.011-0.704,0.006-0.705,0.685
		C16.999,200.202,17,202.614,17,205.026z"/>
	<path fill-rule="evenodd" clip-rule="evenodd" fill="#8AC641" d="M37.821,241.162c0.229-1.183,0.465-2.384,0.695-3.586
		c1.191-6.196,2.381-12.395,3.576-18.591c0.966-5.013,1.941-10.026,2.911-15.039c0.716-3.702,1.428-7.405,2.142-11.108
		c0.133-0.687,0.135-0.692,0.861-0.692c2.191-0.003,4.386-0.003,6.579,0c0.696,0.001,0.698,0.007,0.821,0.646
		c1.254,6.479,2.509,12.956,3.76,19.436c1.375,7.121,2.75,14.243,4.123,21.364c0.484,2.517,0.959,5.038,1.436,7.542
		c-0.191,0.203-0.414,0.133-0.614,0.134c-1.4,0.006-2.801,0.006-4.202,0.001c-0.658-0.001-0.668-0.005-0.798-0.664
		c-0.501-2.57-0.995-5.142-1.489-7.714c-0.064-0.334-0.133-0.667-0.184-1.004c-0.056-0.363-0.211-0.584-0.625-0.52
		c-0.103,0.015-0.211,0.002-0.316,0.002c-3.621,0-7.24-0.003-10.859,0.001c-0.928,0.001-0.804-0.125-0.992,0.822
		c-0.557,2.772-1.076,5.552-1.611,8.33c-0.143,0.746-0.143,0.748-0.893,0.75c-1.188,0.002-2.377,0.003-3.566-0.003
		C38.342,241.267,38.098,241.32,37.821,241.162z M51.051,198.774c-0.254,0.153-0.232,0.293-0.255,0.416
		c-0.864,4.5-1.727,9.002-2.592,13.503c-0.856,4.449-1.715,8.897-2.571,13.348c-0.114,0.593-0.107,0.594,0.528,0.611
		c0.054,0.001,0.106,0,0.159,0c3.145,0,6.29,0.001,9.436-0.002c0.232,0,0.475,0.055,0.766-0.126
		C54.706,217.313,52.885,208.076,51.051,198.774z"/>
	<path fill-rule="evenodd" clip-rule="evenodd" fill="#8AC641" d="M117.368,212.075c0,5.664,0.012,11.327-0.006,16.991
		c-0.006,1.652-0.12,3.298-0.562,4.906c-0.229,0.836-0.521,1.648-0.896,2.432c-1.499,3.125-4.021,4.834-7.441,5.305
		c-1.715,0.235-3.422,0.189-5.127-0.122c-2.946-0.54-5.136-2.092-6.526-4.739c-0.97-1.844-1.411-3.827-1.569-5.883
		c-0.041-0.521-0.034-1.048-0.034-1.573c-0.001-12.112-0.001-24.226-0.001-36.34c0-0.104-0.003-0.209,0-0.314
		c0.016-0.572,0.018-0.587,0.56-0.591c1.427-0.008,2.854-0.008,4.282,0c0.56,0.003,0.562,0.017,0.578,0.572
		c0.007,0.184,0.002,0.367,0.002,0.551c0,12.035,0,24.07-0.002,36.104c0,1.185,0.094,2.355,0.423,3.499
		c0.917,3.175,3.003,3.914,5.632,3.914c0.445,0,0.898-0.066,1.336-0.157c1.75-0.365,2.893-1.436,3.527-3.07
		c0.433-1.115,0.611-2.277,0.633-3.462c0.021-1.181,0.007-2.36,0.007-3.54c0-11.145-0.001-22.286,0.001-33.431
		c0-1.074-0.126-0.979,0.96-0.982c1.189-0.004,2.378-0.006,3.567,0c0.645,0.003,0.654,0.012,0.656,0.659
		c0.006,1.809,0.002,3.619,0.002,5.428C117.368,202.845,117.368,207.461,117.368,212.075z"/>
	<path fill-rule="evenodd" clip-rule="evenodd" fill="#8AC641" d="M87.853,205.248c-0.687,0-1.375-0.019-2.062,0.006
		c-0.426,0.016-0.543-0.158-0.537-0.554c0.009-0.811,0.01-1.626-0.045-2.437c-0.07-1.052-0.311-2.069-0.788-3.024
		c-0.741-1.482-1.959-2.273-3.59-2.525c-1.063-0.165-2.105-0.107-3.141,0.156c-1.22,0.312-2.117,1.04-2.731,2.117
		c-0.693,1.22-0.898,2.562-0.991,3.931c-0.187,2.732,0.722,5.09,2.45,7.188c1.433,1.737,3.113,3.211,4.881,4.59
		c1.81,1.413,3.583,2.86,5.13,4.561c1.358,1.491,2.478,3.142,3.239,5.005c0.902,2.209,1.064,4.526,0.867,6.879
		c-0.158,1.869-0.566,3.671-1.415,5.365c-1.497,2.99-3.958,4.615-7.249,5.08c-1.898,0.269-3.79,0.244-5.675-0.134
		c-3.405-0.685-5.616-2.734-6.867-5.89c-0.677-1.704-0.949-3.486-1.028-5.299c-0.045-1.021-0.003-2.046-0.021-3.069
		c-0.008-0.404,0.145-0.553,0.556-0.549c1.374,0.018,2.749,0.02,4.124-0.002c0.449-0.008,0.521,0.2,0.516,0.574
		c-0.01,1.101-0.012,2.203,0.014,3.304c0.025,1.082,0.229,2.139,0.647,3.141c0.77,1.836,2.163,2.849,4.161,3.054
		c0.954,0.099,1.896,0.074,2.83-0.16c1.483-0.37,2.589-1.242,3.143-2.642c1.244-3.148,1.189-6.25-0.639-9.197
		c-1.048-1.692-2.458-3.075-3.945-4.386c-1.246-1.099-2.568-2.101-3.84-3.167c-1.82-1.526-3.519-3.174-4.855-5.156
		c-1.252-1.859-2.162-3.853-2.366-6.098c-0.259-2.848-0.103-5.657,1.017-8.345c1.365-3.28,3.804-5.21,7.35-5.729
		c1.895-0.277,3.787-0.265,5.672,0.123c2.975,0.613,5.095,2.285,6.426,4.989c1.23,2.501,1.478,5.165,1.42,7.891
		c-0.006,0.306-0.143,0.412-0.436,0.409c-0.74-0.008-1.479-0.003-2.22-0.003C87.853,205.246,87.853,205.248,87.853,205.248z"/>
</g>
</svg>
