<?xml version="1.0" encoding="utf-8"?>
<!-- Generator: Adobe Illustrator 16.0.0, SVG Export Plug-In . SVG Version: 6.00 Build 0)  -->
<!DOCTYPE svg PUBLIC "-//W3C//DTD SVG 1.1//EN" "http://www.w3.org/Graphics/SVG/1.1/DTD/svg11.dtd">
<svg version="1.1" xmlns="http://www.w3.org/2000/svg" xmlns:xlink="http://www.w3.org/1999/xlink" x="0px" y="0px"
	 width="230.064px" height="405.534px" viewBox="0 0 230.064 405.534" enable-background="new 0 0 230.064 405.534"
	 xml:space="preserve">
<g id="fondo">
</g>
<g id="Capa_3">
</g>
<g id="Capa_1">
	<g>
		<path fill="#FFFFFF" d="M230.064,405.534c-76.688,0-153.376,0-230.064,0C0,270.356,0,135.178,0,0c76.688,0,153.376,0,230.064,0
			C230.064,135.178,230.064,270.356,230.064,405.534z M180.905,112.654c2.072-0.737,3.936-1.402,5.718-2.277
			c6.065-2.98,10.442-7.51,12.932-13.844c1.922-4.891,2.975-9.976,3.267-15.188c0.444-7.935,0.543-15.882-0.177-23.812
			c-0.378-4.164-1.23-8.236-2.621-12.19c-3.543-10.069-10.409-16.563-20.735-19.396c-5.207-1.428-10.509-2.073-15.89-2.082
			c-14.225-0.024-28.448-0.011-42.672-0.013c-1.571,0-1.571,0-1.571,1.553c0,62.339,0,124.678,0,187.017
			c0,0.238,0.023,0.479-0.004,0.715c-0.069,0.593,0.107,0.929,0.776,0.826c0.155-0.024,0.317-0.003,0.476-0.003
			c14.185,0,28.369,0.005,42.553-0.003c5.58-0.003,11.095-0.529,16.501-2.007c11.434-3.126,19.211-10.259,23.435-21.301
			c2.149-5.619,3.112-11.478,3.347-17.463c0.236-5.996,0.074-11.997,0.105-17.996c0.016-2.981-0.056-5.958-0.336-8.928
			c-0.477-5.045-1.528-9.951-3.365-14.688c-2.834-7.312-7.617-12.843-14.727-16.279
			C185.735,114.239,183.469,113.404,180.905,112.654z M49.725,125.102c-1.46,0.562-2.68,0.997-3.873,1.494
			c-7.352,3.063-12.502,8.215-15.175,15.808c-1.866,5.3-2.81,10.764-2.964,16.339c-0.185,6.668-0.327,13.346,0.171,20.012
			c0.342,4.57,1.15,9.057,2.666,13.393c1.812,5.18,4.506,9.804,8.703,13.439c3.643,3.156,7.917,5.092,12.524,6.357
			c5.636,1.549,11.4,2.013,17.218,2.013c13.668,0.001,27.335,0.003,41.003-0.002c1.806-0.001,1.542,0.189,1.542-1.486
			c0.004-62.339,0.003-124.679,0.003-187.018c0-0.239,0.003-0.478,0-0.716c-0.017-0.869-0.018-0.882-0.938-0.882
			c-15.098,0.003-30.196-0.017-45.294,0.031c-4.661,0.016-9.263,0.652-13.771,1.867c-6.168,1.663-11.698,4.474-16.164,9.144
			c-4.03,4.213-6.726,9.198-8.461,14.737c-1.884,6.007-2.555,12.184-2.582,18.449c-0.022,4.927,0.014,9.853-0.011,14.78
			c-0.02,3.939,0.15,7.862,0.71,11.765c0.795,5.543,2.323,10.854,4.979,15.812c1.886,3.521,4.422,6.482,7.604,8.895
			C41.174,122.03,45.182,123.796,49.725,125.102z M113.499,248.411c-29.278,0-58.555,0-87.833,0c-0.239,0-0.477,0.003-0.715,0
			c-1.001-0.019-0.912,0.005-0.912,0.898c0.001,4.25,0.001,8.5,0.001,12.751c0,1.589,0,1.589,1.545,1.589
			c58.595,0,117.19,0,175.786,0c0.159,0,0.318-0.001,0.477,0c1.09,0.01,1.042,0.053,1.041-1.03
			c-0.002-4.251,0.007-8.501-0.006-12.752c-0.004-1.682,0.25-1.453-1.43-1.454C172.133,248.409,142.816,248.411,113.499,248.411z
			 M60.08,340.839c0.665-0.266,1.148-0.442,1.619-0.65c2.374-1.048,4.234-2.642,5.301-5.058c0.792-1.793,1.233-3.674,1.455-5.623
			c0.312-2.734,0.207-5.477,0.165-8.213c-0.036-2.306-0.387-4.584-1.164-6.781c-1.369-3.868-3.971-6.429-7.936-7.568
			c-1.608-0.462-3.254-0.792-4.921-0.808c-5.998-0.056-11.996-0.047-17.994-0.052c-0.817,0-0.818,0.029-0.844,0.895
			c-0.004,0.158,0,0.317,0,0.476c0,23.914,0,47.828,0,71.744c0,0.198,0.02,0.398-0.002,0.594c-0.069,0.604,0.244,0.774,0.778,0.722
			c0.118-0.012,0.238-0.001,0.357-0.001c5.522,0,11.043-0.006,16.565,0.001c1.595,0.002,3.169-0.17,4.729-0.49
			c4.71-0.967,8.197-3.497,10.126-7.984c0.935-2.173,1.457-4.465,1.517-6.821c0.084-3.255,0.04-6.514,0.042-9.77
			c0.001-1.799-0.309-3.56-0.767-5.289c-1.067-4.027-3.311-7.088-7.288-8.68C61.307,341.277,60.784,341.098,60.08,340.839z
			 M75.376,380.353c0.418,0.239,0.783,0.159,1.134,0.16c1.787,0.009,3.574,0.007,5.361,0.003c1.125-0.002,1.125-0.007,1.34-1.135
			c0.803-4.208,1.586-8.42,2.42-12.621c0.285-1.435,0.1-1.242,1.493-1.244c5.441-0.006,10.881-0.003,16.323-0.003
			c0.159,0,0.321,0.02,0.476-0.003c0.622-0.095,0.856,0.239,0.939,0.789c0.076,0.51,0.178,1.016,0.274,1.521
			c0.745,3.897,1.487,7.793,2.241,11.688c0.193,1,0.21,1.006,1.2,1.008c2.105,0.006,4.21,0.007,6.315-0.003
			c0.3-0.002,0.634,0.104,0.924-0.204c-0.716-3.793-1.43-7.611-2.159-11.426c-2.062-10.791-4.128-21.582-6.196-32.371
			c-1.881-9.817-3.767-19.632-5.65-29.448c-0.187-0.969-0.188-0.978-1.236-0.979c-3.297-0.005-6.593-0.004-9.889,0
			c-1.093,0.001-1.095,0.008-1.294,1.05c-1.073,5.611-2.143,11.221-3.219,16.83c-1.458,7.596-2.924,15.19-4.377,22.787
			c-1.796,9.389-3.582,18.779-5.373,28.169C76.075,376.74,75.722,378.561,75.376,380.353z M194.94,336.281
			c0-6.992,0-13.984,0-20.976c0-2.741,0.005-5.482-0.003-8.224c-0.003-0.98-0.019-0.993-0.986-0.998
			c-1.788-0.009-3.576-0.006-5.363-0.001c-1.633,0.005-1.441-0.14-1.441,1.49c-0.004,16.884-0.002,33.768-0.002,50.652
			c0,1.787,0.02,3.575-0.012,5.363c-0.031,1.796-0.299,3.558-0.95,5.246c-0.954,2.477-2.671,4.098-5.302,4.652
			c-0.658,0.138-1.338,0.237-2.008,0.237c-3.951,0.001-7.087-1.118-8.464-5.928c-0.496-1.733-0.637-3.506-0.636-5.301
			c0.004-18.236,0.002-36.47,0.002-54.706c0-0.278,0.007-0.557-0.001-0.834c-0.026-0.842-0.028-0.863-0.87-0.868
			c-2.146-0.013-4.291-0.013-6.436,0c-0.817,0.005-0.817,0.028-0.842,0.894c-0.004,0.159,0,0.318,0,0.476
			c0,18.355,0,36.709,0.002,55.063c0,0.794-0.009,1.591,0.051,2.382c0.237,3.115,0.901,6.12,2.358,8.915
			c2.09,4.01,5.382,6.361,9.811,7.179c2.562,0.471,5.128,0.543,7.706,0.184c5.139-0.713,8.932-3.301,11.185-8.037
			c0.565-1.187,1.003-2.417,1.349-3.684c0.664-2.437,0.836-4.932,0.843-7.435C194.956,353.443,194.94,344.863,194.94,336.281z
			 M150.578,325.937c0,0,0-0.003,0-0.004c1.112,0,2.225-0.008,3.337,0.004c0.438,0.005,0.645-0.155,0.654-0.619
			c0.086-4.129-0.285-8.166-2.135-11.956c-2-4.096-5.187-6.629-9.657-7.559c-2.834-0.589-5.677-0.606-8.527-0.186
			c-5.33,0.786-8.994,3.71-11.045,8.68c-1.683,4.074-1.917,8.331-1.528,12.646c0.307,3.402,1.674,6.422,3.558,9.239
			c2.009,3.004,4.56,5.498,7.296,7.812c1.91,1.615,3.9,3.135,5.771,4.798c2.236,1.988,4.354,4.082,5.93,6.646
			c2.747,4.467,2.829,9.166,0.959,13.936c-0.831,2.122-2.493,3.443-4.724,4.005c-1.403,0.352-2.819,0.39-4.254,0.241
			c-3.003-0.313-5.097-1.847-6.253-4.629c-0.631-1.519-0.935-3.119-0.973-4.759c-0.039-1.667-0.036-3.337-0.02-5.006
			c0.005-0.567-0.102-0.881-0.777-0.87c-2.066,0.034-4.132,0.028-6.198,0.003c-0.617-0.006-0.847,0.219-0.836,0.832
			c0.029,1.549-0.035,3.101,0.032,4.648c0.12,2.748,0.529,5.448,1.546,8.031c1.882,4.781,5.203,7.887,10.323,8.923
			c2.832,0.573,5.673,0.61,8.527,0.203c4.948-0.705,8.647-3.167,10.897-7.697c1.274-2.565,1.89-5.298,2.125-8.128
			c0.297-3.565,0.054-7.077-1.303-10.424c-1.145-2.823-2.827-5.324-4.867-7.583c-2.326-2.575-4.991-4.769-7.711-6.91
			c-2.656-2.09-5.183-4.322-7.336-6.955c-2.6-3.179-3.964-6.751-3.683-10.891c0.141-2.074,0.447-4.109,1.491-5.955
			c0.923-1.633,2.272-2.736,4.104-3.208c1.556-0.399,3.121-0.485,4.721-0.237c2.451,0.381,4.281,1.58,5.396,3.826
			c0.718,1.446,1.078,2.988,1.185,4.582c0.082,1.227,0.081,2.462,0.066,3.693c-0.007,0.599,0.17,0.864,0.809,0.84
			C148.511,325.908,149.545,325.937,150.578,325.937z"/>
		<path fill-rule="evenodd" clip-rule="evenodd" fill="#010101" d="M180.905,112.654c2.564,0.75,4.83,1.585,7.012,2.64
			c7.11,3.437,11.893,8.967,14.727,16.279c1.836,4.737,2.888,9.643,3.365,14.688c0.28,2.971,0.352,5.947,0.336,8.928
			c-0.031,5.999,0.13,12-0.105,17.996c-0.235,5.985-1.197,11.844-3.347,17.463c-4.224,11.042-12.001,18.175-23.435,21.301
			c-5.406,1.478-10.921,2.004-16.501,2.007c-14.184,0.008-28.369,0.003-42.553,0.003c-0.158,0-0.32-0.021-0.476,0.003
			c-0.669,0.103-0.845-0.233-0.776-0.826c0.027-0.235,0.004-0.477,0.004-0.715c0-62.339,0-124.678,0-187.017
			c0-1.553,0-1.553,1.571-1.553c14.224,0.002,28.447-0.011,42.672,0.013c5.381,0.008,10.684,0.654,15.89,2.082
			c10.326,2.833,17.191,9.328,20.735,19.396c1.391,3.954,2.243,8.026,2.621,12.19c0.72,7.931,0.621,15.877,0.177,23.812
			c-0.292,5.212-1.345,10.297-3.267,15.188c-2.49,6.334-6.866,10.863-12.932,13.844
			C184.841,111.252,182.978,111.917,180.905,112.654z M140.341,159.248c0,11.44,0,22.88,0.001,34.321
			c0,1.117,0.007,1.124,1.075,1.124c7.229,0.002,14.459,0.016,21.688-0.007c2.346-0.009,4.671-0.247,6.964-0.801
			c6.776-1.638,11.213-5.818,13.499-12.35c1.434-4.099,1.852-8.357,1.867-12.665c0.021-5.64,0.02-11.281,0-16.921
			c-0.015-4.299-0.369-8.561-1.402-12.754c-1.744-7.073-6.004-11.725-13.035-13.82c-3.921-1.169-7.93-1.584-11.993-1.601
			c-5.799-0.026-11.599-0.01-17.398-0.004c-1.358,0.001-1.266-0.198-1.266,1.277C140.341,136.447,140.341,147.848,140.341,159.248z
			 M140.341,73.704c0,9.894-0.001,19.787,0.001,29.681c0,1.188-0.131,1.093,1.073,1.093c3.934,0.002,7.867,0.009,11.801-0.002
			c3.058-0.009,6.117,0.078,9.167-0.274c3.21-0.371,6.329-1.062,9.302-2.368c4.234-1.858,7.12-4.925,8.617-9.322
			c1.23-3.611,1.758-7.336,1.81-11.12c0.072-5.243,0.088-10.49-0.011-15.732c-0.076-3.984-0.652-7.909-2.069-11.673
			c-1.651-4.384-4.471-7.639-8.933-9.317c-2.818-1.061-5.754-1.521-8.752-1.531c-7.033-0.025-14.065-0.013-21.098-0.019
			c-0.904,0-0.923-0.073-0.908,0.904c0.003,0.198,0,0.397,0,0.596C140.341,54.314,140.341,64.009,140.341,73.704z"/>
		<path fill-rule="evenodd" clip-rule="evenodd" fill="#010101" d="M49.725,125.102c-4.543-1.306-8.551-3.071-12.11-5.77
			c-3.182-2.412-5.718-5.373-7.604-8.895c-2.656-4.958-4.185-10.269-4.979-15.812c-0.56-3.902-0.729-7.826-0.71-11.765
			c0.025-4.927-0.012-9.853,0.011-14.78c0.027-6.265,0.698-12.442,2.582-18.449c1.736-5.539,4.432-10.524,8.461-14.737
			c4.466-4.67,9.995-7.481,16.164-9.144c4.508-1.215,9.11-1.852,13.771-1.867c15.098-0.048,30.196-0.028,45.294-0.031
			c0.921,0,0.922,0.013,0.938,0.882c0.004,0.238,0,0.477,0,0.716c0,62.339,0,124.679-0.003,187.018c0,1.676,0.265,1.485-1.542,1.486
			c-13.668,0.005-27.335,0.003-41.003,0.002c-5.817,0-11.582-0.464-17.218-2.013c-4.606-1.266-8.881-3.202-12.524-6.357
			c-4.197-3.635-6.892-8.259-8.703-13.439c-1.515-4.336-2.324-8.823-2.666-13.393c-0.498-6.666-0.356-13.344-0.171-20.012
			c0.155-5.576,1.098-11.04,2.964-16.339c2.673-7.593,7.823-12.744,15.175-15.808C47.045,126.099,48.265,125.663,49.725,125.102z
			 M90.348,78.641c0-11.362,0-22.723,0-34.084c0-0.318-0.011-0.636,0.001-0.954c0.015-0.362-0.164-0.496-0.503-0.483
			c-0.198,0.008-0.397,0-0.596,0c-7.23,0-14.46,0.006-21.69-0.003c-1.953-0.002-3.888,0.158-5.804,0.528
			c-6.928,1.342-11.802,5.188-14.362,11.833c-1.4,3.635-2.047,7.428-2.083,11.3c-0.066,7.109-0.037,14.221-0.013,21.332
			c0.01,2.944,0.375,5.861,0.951,8.749c0.31,1.559,0.756,3.079,1.299,4.574c2.042,5.612,6.119,9.03,11.687,10.833
			c3.891,1.26,7.904,1.712,11.973,1.724c6.038,0.017,12.076,0.004,18.114,0.005c1.147,0,1.025,0.034,1.026-1.03
			c0-0.239,0-0.478,0-0.716C90.348,101.046,90.348,89.844,90.348,78.641z M90.348,164.049c0-9.89,0-19.779,0-29.669
			c0-1.171,0.1-1.103-1.079-1.103c-3.336,0.001-6.673-0.011-10.009,0.004c-3.414,0.015-6.832-0.111-10.239,0.227
			c-3.011,0.299-5.958,0.867-8.807,1.922c-5.382,1.994-8.833,5.732-10.318,11.286c-0.68,2.54-1.129,5.121-1.245,7.744
			c-0.264,5.993-0.199,11.991-0.062,17.987c0.075,3.305,0.555,6.56,1.493,9.739c1.865,6.325,5.862,10.404,12.409,11.809
			c2.34,0.502,4.712,0.69,7.098,0.695c6.474,0.01,12.948,0.005,19.422,0.002c1.543-0.001,1.334,0.12,1.335-1.332
			C90.351,183.59,90.348,173.819,90.348,164.049z"/>
		<path fill-rule="evenodd" clip-rule="evenodd" fill="#010101" d="M113.499,248.411c29.317,0,58.635-0.002,87.953,0.003
			c1.68,0.001,1.426-0.228,1.43,1.454c0.013,4.251,0.003,8.501,0.006,12.752c0,1.083,0.049,1.04-1.041,1.03
			c-0.159-0.001-0.318,0-0.477,0c-58.595,0-117.19,0-175.786,0c-1.545,0-1.545,0-1.545-1.589c0-4.251,0-8.502-0.001-12.751
			c0-0.893-0.089-0.917,0.912-0.898c0.238,0.003,0.477,0,0.715,0C54.943,248.411,84.221,248.411,113.499,248.411z"/>
		<path fill-rule="evenodd" clip-rule="evenodd" fill="#8AC641" d="M60.08,340.839c0.704,0.26,1.227,0.438,1.738,0.643
			c3.978,1.593,6.221,4.653,7.288,8.68c0.458,1.729,0.768,3.491,0.767,5.289c-0.002,3.257,0.042,6.515-0.042,9.77
			c-0.061,2.356-0.583,4.648-1.517,6.821c-1.929,4.488-5.416,7.018-10.126,7.984c-1.559,0.32-3.133,0.493-4.729,0.49
			c-5.521-0.007-11.043-0.001-16.565-0.001c-0.119,0-0.24-0.011-0.357,0.001c-0.534,0.053-0.847-0.117-0.778-0.722
			c0.022-0.197,0.002-0.397,0.002-0.594c0-23.916,0-47.83,0-71.744c0-0.159-0.004-0.318,0-0.476
			c0.025-0.865,0.026-0.895,0.844-0.895c5.998,0.005,11.997-0.004,17.994,0.052c1.667,0.016,3.313,0.346,4.921,0.808
			c3.964,1.138,6.567,3.7,7.936,7.568c0.777,2.196,1.128,4.474,1.164,6.781c0.042,2.736,0.146,5.479-0.165,8.213
			c-0.222,1.949-0.663,3.83-1.455,5.623c-1.067,2.416-2.927,4.01-5.301,5.058C61.229,340.396,60.745,340.573,60.08,340.839z
			 M44.083,359.039c0,2.738,0,5.476,0,8.215c0,1.627,0.011,3.254-0.006,4.881c-0.005,0.511,0.09,0.821,0.706,0.813
			c3.214-0.044,6.432,0.12,9.641-0.084c3.331-0.211,5.686-2.167,6.68-5.372c0.415-1.338,0.607-2.712,0.621-4.104
			c0.025-2.619,0.022-5.238,0.002-7.858c-0.012-1.631-0.235-3.239-0.701-4.81c-0.736-2.482-2.357-4.073-4.817-4.836
			c-0.644-0.2-1.292-0.372-1.964-0.461c-3.164-0.417-6.342-0.121-9.512-0.212c-0.438-0.013-0.674,0.141-0.649,0.61
			c0.015,0.278,0,0.556,0,0.833C44.083,350.784,44.083,354.911,44.083,359.039z M44.083,325.601c0,3.695-0.004,7.39,0.003,11.085
			c0.002,0.921,0.02,0.933,0.91,0.943c1.112,0.013,2.225,0.009,3.337,0.002c1.904-0.014,3.813,0.093,5.701-0.29
			c3.042-0.618,5.29-2.114,5.98-5.352c0.148-0.698,0.277-1.398,0.334-2.116c0.17-2.142,0.151-4.288,0.104-6.431
			c-0.036-1.663-0.103-3.333-0.623-4.946c-0.965-2.99-2.848-4.499-5.99-4.777c-2.896-0.256-5.797-0.076-8.695-0.121
			c-1.047-0.016-1.059,0.011-1.061,1.038C44.079,318.291,44.083,321.945,44.083,325.601z"/>
		<path fill-rule="evenodd" clip-rule="evenodd" fill="#8AC641" d="M75.376,380.353c0.345-1.792,0.699-3.613,1.046-5.434
			c1.791-9.39,3.577-18.78,5.373-28.169c1.454-7.597,2.92-15.191,4.377-22.787c1.076-5.609,2.146-11.219,3.219-16.83
			c0.199-1.042,0.201-1.049,1.294-1.05c3.296-0.004,6.592-0.005,9.889,0c1.049,0.002,1.05,0.011,1.236,0.979
			c1.884,9.816,3.77,19.631,5.65,29.448c2.067,10.789,4.134,21.58,6.196,32.371c0.729,3.815,1.443,7.633,2.159,11.426
			c-0.29,0.308-0.624,0.202-0.924,0.204c-2.105,0.01-4.21,0.009-6.315,0.003c-0.989-0.001-1.006-0.008-1.2-1.008
			c-0.753-3.894-1.496-7.791-2.241-11.688c-0.097-0.506-0.198-1.012-0.274-1.521c-0.083-0.55-0.317-0.885-0.939-0.789
			c-0.155,0.023-0.317,0.003-0.476,0.003c-5.441,0-10.882-0.004-16.323,0.003c-1.393,0.002-1.208-0.19-1.493,1.244
			c-0.834,4.201-1.617,8.413-2.42,12.621c-0.215,1.129-0.215,1.134-1.34,1.135c-1.787,0.004-3.574,0.006-5.361-0.003
			C76.16,380.512,75.794,380.592,75.376,380.353z M95.263,316.128c-0.382,0.233-0.349,0.445-0.383,0.629
			c-1.3,6.819-2.595,13.641-3.896,20.46c-1.286,6.742-2.578,13.482-3.864,20.225c-0.172,0.899-0.163,0.901,0.794,0.926
			c0.08,0.002,0.159,0,0.238,0c4.728,0,9.454,0.002,14.182-0.004c0.349,0,0.715,0.084,1.151-0.19
			C100.756,344.217,98.019,330.221,95.263,316.128z"/>
		<path fill-rule="evenodd" clip-rule="evenodd" fill="#8AC641" d="M194.94,336.281c0,8.581,0.016,17.162-0.01,25.743
			c-0.007,2.503-0.18,4.998-0.843,7.435c-0.346,1.267-0.784,2.496-1.349,3.684c-2.253,4.736-6.045,7.324-11.185,8.037
			c-2.578,0.358-5.145,0.287-7.706-0.184c-4.429-0.818-7.72-3.169-9.811-7.179c-1.458-2.795-2.121-5.8-2.358-8.915
			c-0.06-0.79-0.05-1.588-0.051-2.382c-0.002-18.354-0.002-36.708-0.002-55.063c0-0.158-0.004-0.317,0-0.476
			c0.024-0.865,0.025-0.889,0.842-0.894c2.145-0.014,4.29-0.014,6.436,0c0.842,0.004,0.844,0.026,0.87,0.868
			c0.009,0.277,0.001,0.556,0.001,0.834c0,18.235,0.001,36.47-0.002,54.706c-0.001,1.794,0.14,3.568,0.636,5.301
			c1.377,4.81,4.513,5.929,8.464,5.928c0.67,0,1.35-0.099,2.008-0.237c2.631-0.554,4.348-2.175,5.302-4.652
			c0.65-1.688,0.918-3.45,0.95-5.246c0.032-1.788,0.012-3.576,0.012-5.363c0-16.885-0.001-33.769,0.002-50.652
			c0-1.629-0.191-1.484,1.441-1.49c1.788-0.005,3.575-0.009,5.363,0.001c0.968,0.005,0.983,0.018,0.986,0.998
			c0.008,2.741,0.003,5.483,0.003,8.224C194.94,322.297,194.94,329.289,194.94,336.281z"/>
		<path fill-rule="evenodd" clip-rule="evenodd" fill="#8AC641" d="M150.578,325.937c-1.033,0-2.067-0.028-3.099,0.011
			c-0.639,0.024-0.816-0.24-0.809-0.84c0.015-1.23,0.016-2.466-0.066-3.693c-0.106-1.594-0.467-3.136-1.185-4.582
			c-1.114-2.246-2.944-3.445-5.396-3.826c-1.6-0.248-3.165-0.162-4.721,0.237c-1.832,0.472-3.182,1.575-4.104,3.208
			c-1.043,1.846-1.35,3.881-1.491,5.955c-0.281,4.14,1.083,7.712,3.683,10.891c2.153,2.633,4.68,4.865,7.336,6.955
			c2.72,2.142,5.385,4.335,7.711,6.91c2.04,2.259,3.723,4.76,4.867,7.583c1.357,3.348,1.601,6.86,1.303,10.424
			c-0.236,2.831-0.852,5.563-2.125,8.128c-2.25,4.531-5.949,6.992-10.897,7.697c-2.854,0.406-5.695,0.37-8.527-0.203
			c-5.12-1.036-8.441-4.143-10.323-8.923c-1.017-2.582-1.426-5.283-1.546-8.031c-0.067-1.547-0.003-3.1-0.032-4.648
			c-0.011-0.613,0.219-0.838,0.836-0.832c2.066,0.025,4.132,0.031,6.198-0.003c0.675-0.011,0.782,0.303,0.777,0.87
			c-0.016,1.668-0.019,3.338,0.02,5.006c0.038,1.64,0.342,3.24,0.973,4.759c1.156,2.782,3.25,4.316,6.253,4.629
			c1.435,0.149,2.851,0.111,4.254-0.241c2.231-0.562,3.893-1.882,4.724-4.005c1.87-4.77,1.788-9.469-0.959-13.936
			c-1.576-2.564-3.694-4.658-5.93-6.646c-1.872-1.664-3.861-3.183-5.771-4.798c-2.736-2.314-5.288-4.808-7.296-7.812
			c-1.884-2.817-3.25-5.837-3.558-9.239c-0.389-4.314-0.154-8.571,1.528-12.646c2.051-4.969,5.715-7.894,11.045-8.68
			c2.85-0.421,5.692-0.403,8.527,0.186c4.471,0.93,7.657,3.463,9.657,7.559c1.851,3.79,2.222,7.827,2.135,11.956
			c-0.009,0.464-0.216,0.624-0.654,0.619c-1.112-0.012-2.225-0.004-3.337-0.004C150.578,325.934,150.578,325.936,150.578,325.937z"
			/>
		<path fill-rule="evenodd" clip-rule="evenodd" fill="#FFFFFF" d="M140.341,159.248c0-11.4,0-22.8,0-34.201
			c0-1.476-0.092-1.276,1.266-1.277c5.799-0.006,11.599-0.022,17.398,0.004c4.063,0.017,8.072,0.432,11.993,1.601
			c7.03,2.096,11.291,6.747,13.035,13.82c1.034,4.193,1.387,8.455,1.402,12.754c0.02,5.64,0.02,11.281,0,16.921
			c-0.016,4.308-0.433,8.565-1.867,12.665c-2.286,6.531-6.723,10.711-13.499,12.35c-2.292,0.554-4.618,0.792-6.964,0.801
			c-7.229,0.022-14.459,0.009-21.688,0.007c-1.068,0-1.074-0.007-1.075-1.124C140.341,182.128,140.341,170.688,140.341,159.248z"/>
		<path fill-rule="evenodd" clip-rule="evenodd" fill="#FFFFFF" d="M140.341,73.704c0-9.695,0-19.39,0-29.085
			c0-0.198,0.002-0.397,0-0.596c-0.015-0.978,0.004-0.904,0.908-0.904c7.033,0.006,14.065-0.007,21.098,0.019
			c2.999,0.011,5.934,0.471,8.752,1.531c4.462,1.678,7.282,4.933,8.933,9.317c1.417,3.764,1.994,7.689,2.069,11.673
			c0.1,5.242,0.083,10.489,0.011,15.732c-0.052,3.784-0.58,7.509-1.81,11.12c-1.498,4.397-4.383,7.464-8.617,9.322
			c-2.974,1.306-6.092,1.997-9.302,2.368c-3.05,0.353-6.109,0.266-9.167,0.274c-3.934,0.011-7.867,0.004-11.801,0.002
			c-1.204,0-1.073,0.096-1.073-1.093C140.34,93.491,140.341,83.598,140.341,73.704z"/>
		<path fill-rule="evenodd" clip-rule="evenodd" fill="#FFFFFF" d="M90.348,78.641c0,11.203,0,22.405,0,33.606
			c0,0.239,0,0.478,0,0.716c-0.001,1.064,0.122,1.03-1.026,1.03c-6.038-0.001-12.076,0.012-18.114-0.005
			c-4.069-0.012-8.082-0.463-11.973-1.724c-5.568-1.803-9.645-5.221-11.687-10.833c-0.543-1.495-0.989-3.015-1.299-4.574
			c-0.576-2.888-0.94-5.805-0.951-8.749c-0.023-7.111-0.053-14.223,0.013-21.332c0.036-3.872,0.683-7.665,2.083-11.3
			c2.56-6.646,7.434-10.491,14.362-11.833c1.916-0.37,3.851-0.53,5.804-0.528c7.23,0.009,14.459,0.003,21.69,0.003
			c0.198,0,0.397,0.008,0.596,0c0.339-0.013,0.518,0.121,0.503,0.483c-0.013,0.317-0.001,0.636-0.001,0.954
			C90.348,55.918,90.348,67.279,90.348,78.641z"/>
		<path fill-rule="evenodd" clip-rule="evenodd" fill="#FFFFFF" d="M90.348,164.049c0,9.771,0.002,19.541-0.002,29.312
			c-0.001,1.452,0.208,1.331-1.335,1.332c-6.474,0.003-12.948,0.008-19.422-0.002c-2.386-0.004-4.758-0.193-7.098-0.695
			c-6.547-1.404-10.544-5.483-12.409-11.809c-0.938-3.18-1.417-6.435-1.493-9.739c-0.137-5.996-0.201-11.994,0.062-17.987
			c0.116-2.623,0.564-5.204,1.245-7.744c1.486-5.553,4.937-9.292,10.318-11.286c2.849-1.056,5.796-1.623,8.807-1.922
			c3.407-0.338,6.825-0.212,10.239-0.227c3.336-0.015,6.672-0.003,10.009-0.004c1.179,0,1.079-0.068,1.079,1.103
			C90.349,144.27,90.348,154.159,90.348,164.049z"/>
		<path fill-rule="evenodd" clip-rule="evenodd" fill="#FFFFFF" d="M44.083,359.039c0-4.128,0-8.255,0-12.384
			c0-0.277,0.016-0.555,0-0.833c-0.025-0.469,0.212-0.623,0.649-0.61c3.169,0.091,6.348-0.205,9.512,0.212
			c0.672,0.089,1.32,0.261,1.964,0.461c2.46,0.763,4.082,2.354,4.817,4.836c0.466,1.571,0.689,3.179,0.701,4.81
			c0.02,2.62,0.023,5.239-0.002,7.858c-0.014,1.392-0.206,2.766-0.621,4.104c-0.994,3.205-3.35,5.161-6.68,5.372
			c-3.209,0.204-6.427,0.04-9.641,0.084c-0.616,0.008-0.711-0.303-0.706-0.813c0.017-1.627,0.006-3.254,0.006-4.881
			C44.083,364.516,44.083,361.777,44.083,359.039z"/>
		<path fill-rule="evenodd" clip-rule="evenodd" fill="#FFFFFF" d="M44.083,325.601c0-3.656-0.004-7.31,0.002-10.965
			c0.001-1.027,0.014-1.054,1.061-1.038c2.898,0.045,5.799-0.135,8.695,0.121c3.142,0.277,5.025,1.786,5.99,4.777
			c0.52,1.613,0.586,3.283,0.623,4.946c0.047,2.143,0.066,4.289-0.104,6.431c-0.057,0.718-0.186,1.417-0.334,2.116
			c-0.69,3.238-2.938,4.734-5.98,5.352c-1.887,0.383-3.796,0.276-5.701,0.29c-1.112,0.007-2.225,0.011-3.337-0.002
			c-0.891-0.01-0.908-0.022-0.91-0.943C44.079,332.991,44.083,329.296,44.083,325.601z"/>
		<path fill-rule="evenodd" clip-rule="evenodd" fill="#FFFFFF" d="M95.263,316.128c2.756,14.093,5.493,28.089,8.223,42.045
			c-0.436,0.274-0.803,0.19-1.151,0.19c-4.728,0.006-9.454,0.004-14.182,0.004c-0.079,0-0.159,0.002-0.238,0
			c-0.957-0.024-0.966-0.026-0.794-0.926c1.286-6.742,2.578-13.483,3.864-20.225c1.301-6.819,2.596-13.641,3.896-20.46
			C94.914,316.573,94.881,316.361,95.263,316.128z"/>
	</g>
</g>
</svg>
