<svg xmlns="http://www.w3.org/2000/svg" width="116.522" height="31.282" viewBox="0 0 116.522 31.282"><defs><style>.a{fill:#4d4c4d;stroke:rgba(0,0,0,0);stroke-miterlimit:10;}</style></defs><g transform="translate(0.5 0.5)"><path class="a" d="M-916.151,2933.959a.39.39,0,0,1-.288-.118.392.392,0,0,1-.119-.288v-22.9a.391.391,0,0,1,.119-.288.391.391,0,0,1,.288-.119h3.964a.392.392,0,0,1,.287.119.391.391,0,0,1,.119.288v1.118c0,.067.022.107.068.119a.142.142,0,0,0,.136-.052,4.669,4.669,0,0,1,3.929-1.863,6.483,6.483,0,0,1,4.047,1.3,7.165,7.165,0,0,1,2.456,3.641,12.237,12.237,0,0,1,.609,4.064,13.142,13.142,0,0,1-.643,4.235,7.285,7.285,0,0,1-2.455,3.438,6.675,6.675,0,0,1-4.15,1.27,4.58,4.58,0,0,1-3.794-1.693c-.046-.068-.091-.09-.136-.068a.138.138,0,0,0-.068.136v7.249a.392.392,0,0,1-.119.288.391.391,0,0,1-.287.118Zm5.115-18.427a6.837,6.837,0,0,0-.711,3.422,6.926,6.926,0,0,0,.744,3.522,2.5,2.5,0,0,0,2.3,1.355,2.669,2.669,0,0,0,2.372-1.322,6.608,6.608,0,0,0,.846-3.59,6.869,6.869,0,0,0-.711-3.388,2.638,2.638,0,0,0-2.507-1.456A2.507,2.507,0,0,0-911.036,2915.533Zm-22.66,18.427a.388.388,0,0,1-.288-.118.392.392,0,0,1-.119-.288v-22.9a.391.391,0,0,1,.119-.288.389.389,0,0,1,.288-.119h3.963a.392.392,0,0,1,.288.119.391.391,0,0,1,.119.288v1.118c0,.067.022.107.068.119a.142.142,0,0,0,.136-.052,4.666,4.666,0,0,1,3.928-1.863,6.486,6.486,0,0,1,4.048,1.3,7.165,7.165,0,0,1,2.456,3.641,12.239,12.239,0,0,1,.609,4.064,13.117,13.117,0,0,1-.644,4.235,7.286,7.286,0,0,1-2.456,3.438,6.672,6.672,0,0,1-4.149,1.27,4.58,4.58,0,0,1-3.793-1.693c-.046-.068-.091-.09-.136-.068a.137.137,0,0,0-.068.136v7.249a.392.392,0,0,1-.119.288.391.391,0,0,1-.288.118Zm5.114-18.427a6.846,6.846,0,0,0-.711,3.422,6.926,6.926,0,0,0,.745,3.522,2.5,2.5,0,0,0,2.3,1.355,2.667,2.667,0,0,0,2.372-1.322,6.6,6.6,0,0,0,.847-3.59,6.869,6.869,0,0,0-.711-3.388,2.64,2.64,0,0,0-2.507-1.456A2.507,2.507,0,0,0-928.582,2915.533Zm32.569,11.076a7.334,7.334,0,0,1-2.9-3.692,11.609,11.609,0,0,1-.712-4.437,9.735,9.735,0,0,1,.509-3.286,7.439,7.439,0,0,1,2.726-3.828,7.631,7.631,0,0,1,4.624-1.423,7.528,7.528,0,0,1,5.436,1.965,8.6,8.6,0,0,1,2.489,5.25,14.56,14.56,0,0,1,.136,2.879.4.4,0,0,1-.441.407h-10.466c-.136,0-.182.056-.136.169a6.021,6.021,0,0,0,.373,1.354q.88,1.9,3.591,1.9a4.086,4.086,0,0,0,3.421-1.761.375.375,0,0,1,.305-.2.377.377,0,0,1,.238.136l2.438,2.4a.473.473,0,0,1,.17.3.71.71,0,0,1-.136.271,7.4,7.4,0,0,1-2.879,2.151,9.634,9.634,0,0,1-3.862.761A8.793,8.793,0,0,1-896.013,2926.609Zm1.473-10.534a8.166,8.166,0,0,0-.238,1.083.15.15,0,0,0,.17.169h5.86c.136,0,.18-.056.136-.169q-.17-.981-.17-.948a2.923,2.923,0,0,0-1.067-1.575,3.094,3.094,0,0,0-1.88-.559A2.715,2.715,0,0,0-894.54,2916.076Zm-54.06,10.365a7.445,7.445,0,0,1-2.778-4.065,12.064,12.064,0,0,1-.473-3.455,12.575,12.575,0,0,1,.473-3.59,7.28,7.28,0,0,1,2.812-3.929,8.291,8.291,0,0,1,4.878-1.423,7.935,7.935,0,0,1,4.742,1.406,7.492,7.492,0,0,1,2.777,3.912,11.613,11.613,0,0,1,.543,3.557,11.935,11.935,0,0,1-.474,3.421,7.584,7.584,0,0,1-2.76,4.15,7.892,7.892,0,0,1-4.862,1.507A8.025,8.025,0,0,1-948.6,2926.441Zm2.93-11.721a3.61,3.61,0,0,0-1.1,1.8,8.058,8.058,0,0,0-.271,2.4,9.2,9.2,0,0,0,.238,2.371,3.7,3.7,0,0,0,1.134,1.864,2.9,2.9,0,0,0,1.948.678,2.788,2.788,0,0,0,1.9-.678,3.766,3.766,0,0,0,1.118-1.864,9.744,9.744,0,0,0,.271-2.371,9.155,9.155,0,0,0-.271-2.4,3.762,3.762,0,0,0-1.152-1.8,2.885,2.885,0,0,0-1.9-.644A2.869,2.869,0,0,0-945.671,2914.72Zm-37.242,12.347a6.99,6.99,0,0,1-3.134-2.473,6.463,6.463,0,0,1-1.1-3.743v-.745a.391.391,0,0,1,.12-.288.391.391,0,0,1,.288-.118h3.861a.392.392,0,0,1,.287.118.4.4,0,0,1,.12.288v.508a2.768,2.768,0,0,0,1.253,2.287,5.557,5.557,0,0,0,3.388.93,4,4,0,0,0,2.676-.762,2.389,2.389,0,0,0,.88-1.879,1.894,1.894,0,0,0-.542-1.373,4.789,4.789,0,0,0-1.473-.982q-.932-.424-2.964-1.169a29.1,29.1,0,0,1-3.845-1.591,7.727,7.727,0,0,1-2.642-2.219,5.576,5.576,0,0,1-1.066-3.471,6.113,6.113,0,0,1,1.05-3.557,6.688,6.688,0,0,1,2.912-2.338,10.677,10.677,0,0,1,4.3-.813,10.988,10.988,0,0,1,4.59.915,7.487,7.487,0,0,1,3.15,2.557,6.547,6.547,0,0,1,1.135,3.811v.509a.391.391,0,0,1-.119.288.392.392,0,0,1-.288.119h-3.9a.388.388,0,0,1-.287-.119.389.389,0,0,1-.12-.288v-.271a3.075,3.075,0,0,0-1.168-2.422,4.765,4.765,0,0,0-3.2-1,4.051,4.051,0,0,0-2.49.678,2.208,2.208,0,0,0-.9,1.863,2.031,2.031,0,0,0,.525,1.423,4.607,4.607,0,0,0,1.559,1.033q1.033.458,3.2,1.236a40.09,40.09,0,0,1,3.777,1.559,7.535,7.535,0,0,1,2.472,2.016,5.284,5.284,0,0,1,1.1,3.471,6.063,6.063,0,0,1-2.337,5.03,9.945,9.945,0,0,1-6.334,1.846A12.054,12.054,0,0,1-982.913,2927.067Zm100.871.592a.392.392,0,0,1-.287-.118.393.393,0,0,1-.119-.288v-16.6a.391.391,0,0,1,.119-.288.389.389,0,0,1,.287-.119h3.964a.392.392,0,0,1,.288.119.391.391,0,0,1,.119.288v1.287a.135.135,0,0,0,.068.135.066.066,0,0,0,.1-.034,4.3,4.3,0,0,1,3.726-2.032,3.442,3.442,0,0,1,1.93.474.422.422,0,0,1,.2.509l-.712,3.861c-.023.271-.18.351-.473.238a3.777,3.777,0,0,0-1.186-.169,5.644,5.644,0,0,0-.745.068,3.332,3.332,0,0,0-2.066.9,2.77,2.77,0,0,0-.846,2.118v9.248a.393.393,0,0,1-.119.288.4.4,0,0,1-.288.118Zm-75.366,0a.4.4,0,0,1-.288-.118.393.393,0,0,1-.119-.288v-10.129a3.164,3.164,0,0,0-.762-2.2,2.577,2.577,0,0,0-2.015-.847,2.578,2.578,0,0,0-2.015.847,3.164,3.164,0,0,0-.762,2.2v10.129a.4.4,0,0,1-.118.288.4.4,0,0,1-.289.118h-3.963a.393.393,0,0,1-.288-.118.393.393,0,0,1-.119-.288v-22.9a.393.393,0,0,1,.119-.288.394.394,0,0,1,.288-.119h3.963a.4.4,0,0,1,.289.119.4.4,0,0,1,.118.288v7.486a.135.135,0,0,0,.068.135.066.066,0,0,0,.1-.033,4.732,4.732,0,0,1,4.133-1.965,5.911,5.911,0,0,1,4.37,1.659,6.09,6.09,0,0,1,1.66,4.505v11.111a.393.393,0,0,1-.119.288.4.4,0,0,1-.288.118Z" transform="translate(987.148 -2903.677)"/></g></svg>